# This file uses centimeters as units for non-parametric coordinates.

mtllib plane_Mesh.mtl
g default
v -11.963600 -0.000000 -11.963600
v -7.178160 -0.000000 -11.963600
v -2.392720 -0.000000 -11.963600
v 2.392720 -0.000000 -11.963600
v 7.178160 -0.000000 -11.963600
v 11.963600 -0.000000 -11.963600
v -11.963600 -0.000000 -7.178160
v -7.178160 -0.000000 -7.178160
v -2.392720 -0.000000 -7.178160
v 2.392720 -0.000000 -7.178160
v 7.178160 -0.000000 -7.178160
v 11.963600 -0.000000 -7.178160
v -11.963600 -0.000000 -2.392720
v -7.178160 -0.000000 -2.392720
v -2.392720 -0.000000 -2.392720
v 2.392720 -0.000000 -2.392720
v 7.178160 -0.000000 -2.392720
v 11.963600 -0.000000 -2.392720
v -11.963600 0.000000 2.392720
v -7.178160 0.000000 2.392720
v -2.392720 0.000000 2.392720
v 2.392720 0.000000 2.392720
v 7.178160 0.000000 2.392720
v 11.963600 0.000000 2.392720
v -11.963600 0.000000 7.178160
v -7.178160 0.000000 7.178160
v -2.392720 0.000000 7.178160
v 2.392720 0.000000 7.178160
v 7.178160 0.000000 7.178160
v 11.963600 0.000000 7.178160
v -11.963600 0.000000 11.963600
v -7.178160 0.000000 11.963600
v -2.392720 0.000000 11.963600
v 2.392720 0.000000 11.963600
v 7.178160 0.000000 11.963600
v 11.963600 0.000000 11.963600
vt 0.000000 0.000000
vt 0.200000 0.000000
vt 0.400000 0.000000
vt 0.600000 0.000000
vt 0.800000 0.000000
vt 1.000000 0.000000
vt 0.000000 0.200000
vt 0.200000 0.200000
vt 0.400000 0.200000
vt 0.600000 0.200000
vt 0.800000 0.200000
vt 1.000000 0.200000
vt 0.000000 0.400000
vt 0.200000 0.400000
vt 0.400000 0.400000
vt 0.600000 0.400000
vt 0.800000 0.400000
vt 1.000000 0.400000
vt 0.000000 0.600000
vt 0.200000 0.600000
vt 0.400000 0.600000
vt 0.600000 0.600000
vt 0.800000 0.600000
vt 1.000000 0.600000
vt 0.000000 0.800000
vt 0.200000 0.800000
vt 0.400000 0.800000
vt 0.600000 0.800000
vt 0.800000 0.800000
vt 1.000000 0.800000
vt 0.000000 1.000000
vt 0.200000 1.000000
vt 0.400000 1.000000
vt 0.600000 1.000000
vt 0.800000 1.000000
vt 1.000000 1.000000
vn 0.000000 1.000000 -0.000000
vn 0.000000 1.000000 -0.000000
vn 0.000000 1.000000 -0.000000
vn 0.000000 1.000000 -0.000000
vn 0.000000 1.000000 -0.000000
vn 0.000000 1.000000 -0.000000
vn 0.000000 1.000000 -0.000000
vn 0.000000 1.000000 -0.000000
vn 0.000000 1.000000 -0.000000
vn 0.000000 1.000000 -0.000000
vn 0.000000 1.000000 -0.000000
vn 0.000000 1.000000 -0.000000
vn 0.000000 1.000000 -0.000000
vn 0.000000 1.000000 -0.000000
vn 0.000000 1.000000 -0.000000
vn 0.000000 1.000000 -0.000000
vn 0.000000 1.000000 -0.000000
vn 0.000000 1.000000 -0.000000
vn 0.000000 1.000000 -0.000000
vn 0.000000 1.000000 -0.000000
vn 0.000000 1.000000 -0.000000
vn 0.000000 1.000000 -0.000000
vn 0.000000 1.000000 -0.000000
vn 0.000000 1.000000 -0.000000
vn 0.000000 1.000000 -0.000000
vn 0.000000 1.000000 -0.000000
vn 0.000000 1.000000 -0.000000
vn 0.000000 1.000000 -0.000000
vn 0.000000 1.000000 -0.000000
vn 0.000000 1.000000 -0.000000
vn 0.000000 1.000000 -0.000000
vn 0.000000 1.000000 -0.000000
vn 0.000000 1.000000 -0.000000
vn 0.000000 1.000000 -0.000000
vn 0.000000 1.000000 -0.000000
vn 0.000000 1.000000 -0.000000
s 1
g pPlane1
usemtl initialShadingGroup
f 2/2/1 1/1/2 8/8/3
f 8/8/3 1/1/2 7/7/4
f 3/3/5 2/2/1 9/9/6
f 9/9/6 2/2/1 8/8/3
f 4/4/7 3/3/5 10/10/8
f 10/10/8 3/3/5 9/9/6
f 5/5/9 4/4/7 11/11/10
f 11/11/10 4/4/7 10/10/8
f 6/6/11 5/5/9 12/12/12
f 12/12/12 5/5/9 11/11/10
f 8/8/3 7/7/4 14/14/13
f 14/14/13 7/7/4 13/13/14
f 9/9/6 8/8/3 15/15/15
f 15/15/15 8/8/3 14/14/13
f 10/10/8 9/9/6 16/16/16
f 16/16/16 9/9/6 15/15/15
f 11/11/10 10/10/8 17/17/17
f 17/17/17 10/10/8 16/16/16
f 12/12/12 11/11/10 18/18/18
f 18/18/18 11/11/10 17/17/17
f 14/14/13 13/13/14 20/20/19
f 20/20/19 13/13/14 19/19/20
f 15/15/15 14/14/13 21/21/21
f 21/21/21 14/14/13 20/20/19
f 16/16/16 15/15/15 22/22/22
f 22/22/22 15/15/15 21/21/21
f 17/17/17 16/16/16 23/23/23
f 23/23/23 16/16/16 22/22/22
f 18/18/18 17/17/17 24/24/24
f 24/24/24 17/17/17 23/23/23
f 20/20/19 19/19/20 26/26/25
f 26/26/25 19/19/20 25/25/26
f 21/21/21 20/20/19 27/27/27
f 27/27/27 20/20/19 26/26/25
f 22/22/22 21/21/21 28/28/28
f 28/28/28 21/21/21 27/27/27
f 23/23/23 22/22/22 29/29/29
f 29/29/29 22/22/22 28/28/28
f 24/24/24 23/23/23 30/30/30
f 30/30/30 23/23/23 29/29/29
f 26/26/25 25/25/26 32/32/31
f 32/32/31 25/25/26 31/31/32
f 27/27/27 26/26/25 33/33/33
f 33/33/33 26/26/25 32/32/31
f 28/28/28 27/27/27 34/34/34
f 34/34/34 27/27/27 33/33/33
f 29/29/29 28/28/28 35/35/35
f 35/35/35 28/28/28 34/34/34
f 30/30/30 29/29/29 36/36/36
f 36/36/36 29/29/29 35/35/35
g default
v -11.963600 -0.000000 -11.963600
v -7.178160 -0.000000 -11.963600
v -2.392720 -0.000000 -11.963600
v 2.392720 -0.000000 -11.963600
v 7.178160 -0.000000 -11.963600
v 11.963600 -0.000000 -11.963600
v -11.963600 -0.000000 -7.178160
v -7.178160 -0.000000 -7.178160
v -2.392720 -0.000000 -7.178160
v 2.392720 -0.000000 -7.178160
v 7.178160 -0.000000 -7.178160
v 11.963600 -0.000000 -7.178160
v -11.963600 -0.000000 -2.392720
v -7.178160 -0.000000 -2.392720
v -2.392720 -0.000000 -2.392720
v 2.392720 -0.000000 -2.392720
v 7.178160 -0.000000 -2.392720
v 11.963600 -0.000000 -2.392720
v -11.963600 0.000000 2.392720
v -7.178160 0.000000 2.392720
v -2.392720 0.000000 2.392720
v 2.392720 0.000000 2.392720
v 7.178160 0.000000 2.392720
v 11.963600 0.000000 2.392720
v -11.963600 0.000000 7.178160
v -7.178160 0.000000 7.178160
v -2.392720 0.000000 7.178160
v 2.392720 0.000000 7.178160
v 7.178160 0.000000 7.178160
v 11.963600 0.000000 7.178160
v -11.963600 0.000000 11.963600
v -7.178160 0.000000 11.963600
v -2.392720 0.000000 11.963600
v 2.392720 0.000000 11.963600
v 7.178160 0.000000 11.963600
v 11.963600 0.000000 11.963600
vt 0.000000 0.000000
vt 0.200000 0.000000
vt 0.400000 0.000000
vt 0.600000 0.000000
vt 0.800000 0.000000
vt 1.000000 0.000000
vt 0.000000 0.200000
vt 0.200000 0.200000
vt 0.400000 0.200000
vt 0.600000 0.200000
vt 0.800000 0.200000
vt 1.000000 0.200000
vt 0.000000 0.400000
vt 0.200000 0.400000
vt 0.400000 0.400000
vt 0.600000 0.400000
vt 0.800000 0.400000
vt 1.000000 0.400000
vt 0.000000 0.600000
vt 0.200000 0.600000
vt 0.400000 0.600000
vt 0.600000 0.600000
vt 0.800000 0.600000
vt 1.000000 0.600000
vt 0.000000 0.800000
vt 0.200000 0.800000
vt 0.400000 0.800000
vt 0.600000 0.800000
vt 0.800000 0.800000
vt 1.000000 0.800000
vt 0.000000 1.000000
vt 0.200000 1.000000
vt 0.400000 1.000000
vt 0.600000 1.000000
vt 0.800000 1.000000
vt 1.000000 1.000000
vn 0.000000 1.000000 -0.000000
vn 0.000000 1.000000 -0.000000
vn 0.000000 1.000000 -0.000000
vn 0.000000 1.000000 -0.000000
vn 0.000000 1.000000 -0.000000
vn 0.000000 1.000000 -0.000000
vn 0.000000 1.000000 -0.000000
vn 0.000000 1.000000 -0.000000
vn 0.000000 1.000000 -0.000000
vn 0.000000 1.000000 -0.000000
vn 0.000000 1.000000 -0.000000
vn 0.000000 1.000000 -0.000000
vn 0.000000 1.000000 -0.000000
vn 0.000000 1.000000 -0.000000
vn 0.000000 1.000000 -0.000000
vn 0.000000 1.000000 -0.000000
vn 0.000000 1.000000 -0.000000
vn 0.000000 1.000000 -0.000000
vn 0.000000 1.000000 -0.000000
vn 0.000000 1.000000 -0.000000
vn 0.000000 1.000000 -0.000000
vn 0.000000 1.000000 -0.000000
vn 0.000000 1.000000 -0.000000
vn 0.000000 1.000000 -0.000000
vn 0.000000 1.000000 -0.000000
vn 0.000000 1.000000 -0.000000
vn 0.000000 1.000000 -0.000000
vn 0.000000 1.000000 -0.000000
vn 0.000000 1.000000 -0.000000
vn 0.000000 1.000000 -0.000000
vn 0.000000 1.000000 -0.000000
vn 0.000000 1.000000 -0.000000
vn 0.000000 1.000000 -0.000000
vn 0.000000 1.000000 -0.000000
vn 0.000000 1.000000 -0.000000
vn 0.000000 1.000000 -0.000000
s 1
g pPlane1
f 38/38/37 37/37/38 44/44/39
f 44/44/39 37/37/38 43/43/40
f 39/39/41 38/38/37 45/45/42
f 45/45/42 38/38/37 44/44/39
f 40/40/43 39/39/41 46/46/44
f 46/46/44 39/39/41 45/45/42
f 41/41/45 40/40/43 47/47/46
f 47/47/46 40/40/43 46/46/44
f 42/42/47 41/41/45 48/48/48
f 48/48/48 41/41/45 47/47/46
f 44/44/39 43/43/40 50/50/49
f 50/50/49 43/43/40 49/49/50
f 45/45/42 44/44/39 51/51/51
f 51/51/51 44/44/39 50/50/49
f 46/46/44 45/45/42 52/52/52
f 52/52/52 45/45/42 51/51/51
f 47/47/46 46/46/44 53/53/53
f 53/53/53 46/46/44 52/52/52
f 48/48/48 47/47/46 54/54/54
f 54/54/54 47/47/46 53/53/53
f 50/50/49 49/49/50 56/56/55
f 56/56/55 49/49/50 55/55/56
f 51/51/51 50/50/49 57/57/57
f 57/57/57 50/50/49 56/56/55
f 52/52/52 51/51/51 58/58/58
f 58/58/58 51/51/51 57/57/57
f 53/53/53 52/52/52 59/59/59
f 59/59/59 52/52/52 58/58/58
f 54/54/54 53/53/53 60/60/60
f 60/60/60 53/53/53 59/59/59
f 56/56/55 55/55/56 62/62/61
f 62/62/61 55/55/56 61/61/62
f 57/57/57 56/56/55 63/63/63
f 63/63/63 56/56/55 62/62/61
f 58/58/58 57/57/57 64/64/64
f 64/64/64 57/57/57 63/63/63
f 59/59/59 58/58/58 65/65/65
f 65/65/65 58/58/58 64/64/64
f 60/60/60 59/59/59 66/66/66
f 66/66/66 59/59/59 65/65/65
f 62/62/61 61/61/62 68/68/67
f 68/68/67 61/61/62 67/67/68
f 63/63/63 62/62/61 69/69/69
f 69/69/69 62/62/61 68/68/67
f 64/64/64 63/63/63 70/70/70
f 70/70/70 63/63/63 69/69/69
f 65/65/65 64/64/64 71/71/71
f 71/71/71 64/64/64 70/70/70
f 66/66/66 65/65/65 72/72/72
f 72/72/72 65/65/65 71/71/71
