# This file uses centimeters as units for non-parametric coordinates.

mtllib rioterMan.mtl
g default
v 0.286477 0.746504 -0.202979
v -0.286477 0.746504 -0.202979
v 0.374920 1.800000 -0.268032
v -0.374920 1.800000 -0.268032
v 0.374920 1.800000 0.268032
v -0.374920 1.800000 0.268032
v 0.286477 0.746504 0.202979
v -0.286477 0.746504 0.202979
v 0.000000 0.746504 -0.239668
v 0.000000 1.800000 -0.316479
v -0.000000 1.800000 0.316479
v -0.000000 0.746504 0.239668
v 0.243199 0.746504 0.128889
v 0.043278 0.746504 0.128889
v 0.043278 0.746504 -0.128889
v 0.243199 0.746504 -0.128889
v -0.043278 0.746504 0.128889
v -0.043278 0.746504 -0.128889
v -0.243199 0.746504 0.128889
v -0.243199 0.746504 -0.128889
v 0.243199 0.000000 0.128889
v 0.043278 0.000000 0.128889
v 0.043278 0.000000 -0.128889
v 0.243199 0.000000 -0.128889
v -0.043278 0.000000 0.128889
v -0.043278 0.000000 -0.128889
v -0.243199 0.000000 0.128889
v -0.243199 0.000000 -0.128889
v 0.250107 0.978816 0.122521
v 0.495148 0.978816 0.122521
v 0.250107 1.750996 0.122521
v 0.495148 1.750996 0.122521
v 0.250107 1.750996 -0.122521
v 0.495148 1.750996 -0.122521
v 0.250107 0.978816 -0.122521
v 0.495148 0.978816 -0.122521
v -0.250107 0.978816 -0.122521
v -0.495148 0.978816 -0.122521
v -0.250107 1.750996 -0.122521
v -0.495148 1.750996 -0.122521
v -0.250107 1.750996 0.122521
v -0.495148 1.750996 0.122521
v -0.250107 0.978816 0.122521
v -0.495148 0.978816 0.122521
v 0.160698 1.835552 -0.160698
v -0.160698 1.835552 -0.160698
v 0.160698 2.156947 -0.160698
v -0.160698 2.156947 -0.160698
v 0.160698 2.156947 0.160698
v -0.160698 2.156947 0.160698
v 0.160698 1.835552 0.160698
v -0.160698 1.835552 0.160698
v 0.027888 1.968362 0.145063
v -0.027888 1.968362 0.145063
v 0.027888 2.024137 0.145063
v -0.027888 2.024137 0.145063
v 0.027888 2.024137 0.206192
v -0.027888 2.024137 0.206192
v 0.027888 1.968362 0.206192
v -0.027888 1.968362 0.206192
vt 0.375000 0.000000
vt 0.625000 0.000000
vt 0.375000 0.250000
vt 0.625000 0.250000
vt 0.375000 0.500000
vt 0.625000 0.500000
vt 0.375000 0.750000
vt 0.625000 0.750000
vt 0.375000 1.000000
vt 0.625000 1.000000
vt 0.875000 0.000000
vt 0.875000 0.250000
vt 0.125000 0.000000
vt 0.125000 0.250000
vt 0.500000 0.000000
vt 0.500000 1.000000
vt 0.500000 0.250000
vt 0.500000 0.500000
vt 0.500000 0.750000
vt 0.375000 0.750000
vt 0.500000 0.750000
vt 0.500000 1.000000
vt 0.375000 1.000000
vt 0.500000 1.000000
vt 0.500000 0.750000
vt 0.625000 0.750000
vt 0.625000 1.000000
vt 0.375000 0.750000
vt 0.500000 0.750000
vt 0.500000 1.000000
vt 0.375000 1.000000
vt 0.500000 1.000000
vt 0.500000 0.750000
vt 0.625000 0.750000
vt 0.625000 1.000000
vt 0.375000 0.000000
vt 0.625000 0.000000
vt 0.625000 0.250000
vt 0.375000 0.250000
vt 0.625000 0.500000
vt 0.375000 0.500000
vt 0.625000 0.750000
vt 0.375000 0.750000
vt 0.625000 1.000000
vt 0.375000 1.000000
vt 0.875000 0.000000
vt 0.875000 0.250000
vt 0.125000 0.000000
vt 0.125000 0.250000
vt 0.375000 0.000000
vt 0.625000 0.000000
vt 0.625000 0.250000
vt 0.375000 0.250000
vt 0.625000 0.500000
vt 0.375000 0.500000
vt 0.625000 0.750000
vt 0.375000 0.750000
vt 0.625000 1.000000
vt 0.375000 1.000000
vt 0.875000 0.000000
vt 0.875000 0.250000
vt 0.125000 0.000000
vt 0.125000 0.250000
vt 0.375000 0.000000
vt 0.625000 0.000000
vt 0.625000 0.250000
vt 0.375000 0.250000
vt 0.625000 0.500000
vt 0.375000 0.500000
vt 0.625000 0.750000
vt 0.375000 0.750000
vt 0.625000 1.000000
vt 0.375000 1.000000
vt 0.875000 0.000000
vt 0.875000 0.250000
vt 0.125000 0.000000
vt 0.125000 0.250000
vt 0.375000 0.000000
vt 0.625000 0.000000
vt 0.625000 0.250000
vt 0.375000 0.250000
vt 0.625000 0.500000
vt 0.375000 0.500000
vt 0.625000 0.750000
vt 0.375000 0.750000
vt 0.625000 1.000000
vt 0.375000 1.000000
vt 0.875000 0.000000
vt 0.875000 0.250000
vt 0.125000 0.000000
vt 0.125000 0.250000
vn 0.000000 -0.072718 -0.997353
vn 0.000000 -0.072449 -0.997372
vn 0.126993 -0.072048 -0.989284
vn 0.127823 -0.071813 -0.989194
vn 0.000000 1.000000 -0.000000
vn 0.000000 1.000000 -0.000000
vn 0.000000 1.000000 -0.000000
vn 0.000000 1.000000 -0.000000
vn 0.127823 -0.071813 0.989194
vn -0.000000 -0.072449 0.997372
vn 0.126993 -0.072048 0.989284
vn -0.000000 -0.072718 0.997353
vn 0.000000 -1.000000 0.000000
vn 0.000000 -1.000000 0.000000
vn 0.000000 -1.000000 0.000000
vn 0.000000 -1.000000 0.000000
vn -0.996495 -0.083657 -0.000000
vn -0.996495 -0.083657 -0.000000
vn -0.996495 -0.083657 -0.000000
vn -0.996495 -0.083657 -0.000000
vn 0.996495 -0.083657 0.000000
vn 0.996495 -0.083657 0.000000
vn 0.996495 -0.083657 0.000000
vn 0.996495 -0.083657 0.000000
vn -0.126993 -0.072048 -0.989284
vn -0.127823 -0.071813 -0.989194
vn 0.000000 1.000000 -0.000000
vn 0.000000 1.000000 -0.000000
vn -0.126993 -0.072048 0.989284
vn -0.127823 -0.071813 0.989194
vn 0.000000 -1.000000 0.000000
vn 0.000000 -1.000000 0.000000
vn 0.000000 -1.000000 0.000000
vn 0.000000 -1.000000 0.000000
vn -0.000000 -1.000000 0.000001
vn -0.000000 -1.000000 0.000001
vn 0.000000 -1.000000 -0.000000
vn 0.000000 -1.000000 -0.000001
vn 0.000000 -1.000000 -0.000001
vn 0.000000 -1.000000 -0.000001
vn -0.000000 -1.000000 0.000001
vn -0.000000 -1.000000 0.000001
vn 0.000000 -1.000000 -0.000001
vn -0.000000 -1.000000 0.000001
vn 0.000000 -1.000000 -0.000001
vn 0.000000 -1.000000 -0.000001
vn -0.000000 -1.000000 0.000000
vn -0.000000 -1.000000 0.000001
vn -0.000000 0.000000 1.000000
vn -0.000000 0.000000 1.000000
vn -0.000000 0.000000 1.000000
vn -0.000000 0.000000 1.000000
vn -1.000000 0.000000 -0.000000
vn -1.000000 0.000000 -0.000000
vn -1.000000 0.000000 -0.000000
vn -1.000000 0.000000 -0.000000
vn 0.000000 0.000000 -1.000000
vn 0.000000 0.000000 -1.000000
vn 0.000000 0.000000 -1.000000
vn 0.000000 0.000000 -1.000000
vn 1.000000 0.000000 0.000000
vn 1.000000 0.000000 0.000000
vn 1.000000 0.000000 0.000000
vn 1.000000 0.000000 0.000000
vn 1.000000 0.000000 0.000000
vn 1.000000 0.000000 0.000000
vn 1.000000 0.000000 0.000000
vn 1.000000 0.000000 0.000000
vn -0.000000 0.000000 1.000000
vn -0.000000 0.000000 1.000000
vn -0.000000 0.000000 1.000000
vn -0.000000 0.000000 1.000000
vn -1.000000 0.000000 -0.000000
vn -1.000000 0.000000 -0.000000
vn -1.000000 0.000000 -0.000000
vn -1.000000 0.000000 -0.000000
vn 0.000000 0.000000 -1.000000
vn 0.000000 0.000000 -1.000000
vn 0.000000 0.000000 -1.000000
vn 0.000000 0.000000 -1.000000
vn -0.000000 0.000000 1.000000
vn -0.000000 0.000000 1.000000
vn -0.000000 0.000000 1.000000
vn -0.000000 0.000000 1.000000
vn 0.000000 1.000000 -0.000000
vn 0.000000 1.000000 -0.000000
vn 0.000000 1.000000 -0.000000
vn 0.000000 1.000000 -0.000000
vn 0.000000 0.000000 -1.000000
vn 0.000000 0.000000 -1.000000
vn 0.000000 0.000000 -1.000000
vn 0.000000 0.000000 -1.000000
vn 0.000000 -1.000000 0.000000
vn 0.000000 -1.000000 0.000000
vn 0.000000 -1.000000 0.000000
vn 0.000000 -1.000000 0.000000
vn 1.000000 0.000000 0.000000
vn 1.000000 0.000000 0.000000
vn 1.000000 0.000000 0.000000
vn 1.000000 0.000000 0.000000
vn -1.000000 0.000000 -0.000000
vn -1.000000 0.000000 -0.000000
vn -1.000000 0.000000 -0.000000
vn -1.000000 0.000000 -0.000000
vn 0.000000 0.000000 -1.000000
vn 0.000000 0.000000 -1.000000
vn 0.000000 0.000000 -1.000000
vn 0.000000 0.000000 -1.000000
vn 0.000000 1.000000 -0.000000
vn 0.000000 1.000000 -0.000000
vn 0.000000 1.000000 -0.000000
vn 0.000000 1.000000 -0.000000
vn -0.000000 0.000000 1.000000
vn -0.000000 0.000000 1.000000
vn -0.000000 0.000000 1.000000
vn -0.000000 0.000000 1.000000
vn 0.000000 -1.000000 0.000000
vn 0.000000 -1.000000 0.000000
vn 0.000000 -1.000000 0.000000
vn 0.000000 -1.000000 0.000000
vn -1.000000 0.000000 -0.000000
vn -1.000000 0.000000 -0.000000
vn -1.000000 0.000000 -0.000000
vn -1.000000 0.000000 -0.000000
vn 1.000000 0.000000 0.000000
vn 1.000000 0.000000 0.000000
vn 1.000000 0.000000 0.000000
vn 1.000000 0.000000 0.000000
vn 0.000000 0.000000 -1.000000
vn 0.000000 0.000000 -1.000000
vn 0.000000 0.000000 -1.000000
vn 0.000000 0.000000 -1.000000
vn 0.000000 1.000000 -0.000000
vn 0.000000 1.000000 -0.000000
vn 0.000000 1.000000 -0.000000
vn 0.000000 1.000000 -0.000000
vn -0.000000 0.000000 1.000000
vn -0.000000 0.000000 1.000000
vn -0.000000 0.000000 1.000000
vn -0.000000 0.000000 1.000000
vn 0.000000 -1.000000 0.000000
vn 0.000000 -1.000000 0.000000
vn 0.000000 -1.000000 0.000000
vn 0.000000 -1.000000 0.000000
vn -1.000000 0.000000 -0.000000
vn -1.000000 0.000000 -0.000000
vn -1.000000 0.000000 -0.000000
vn -1.000000 0.000000 -0.000000
vn 1.000000 0.000000 0.000000
vn 1.000000 0.000000 0.000000
vn 1.000000 0.000000 0.000000
vn 1.000000 0.000000 0.000000
vn 0.000000 0.000000 -1.000000
vn 0.000000 0.000000 -1.000000
vn 0.000000 0.000000 -1.000000
vn 0.000000 0.000000 -1.000000
vn 0.000000 1.000000 -0.000000
vn 0.000000 1.000000 -0.000000
vn 0.000000 1.000000 -0.000000
vn 0.000000 1.000000 -0.000000
vn -0.000000 0.000000 1.000000
vn -0.000000 0.000000 1.000000
vn -0.000000 0.000000 1.000000
vn -0.000000 0.000000 1.000000
vn 0.000000 -1.000000 0.000000
vn 0.000000 -1.000000 0.000000
vn 0.000000 -1.000000 0.000000
vn 0.000000 -1.000000 0.000000
vn -1.000000 0.000000 -0.000000
vn -1.000000 0.000000 -0.000000
vn -1.000000 0.000000 -0.000000
vn -1.000000 0.000000 -0.000000
vn 1.000000 0.000000 0.000000
vn 1.000000 0.000000 0.000000
vn 1.000000 0.000000 0.000000
vn 1.000000 0.000000 0.000000
s 1
g polySurface3
usemtl lambert2SG
f 9/15/1 10/17/2 1/1/3
f 1/1/3 10/17/2 3/3/4
s 2
f 3/3/5 10/17/6 5/5/7
f 5/5/7 10/17/6 11/18/8
s 3
f 5/5/9 11/18/10 7/7/11
f 7/7/11 11/18/10 12/19/12
s 4
f 21/28/13 22/29/14 24/31/15
f 24/31/15 22/29/14 23/30/16
s 5
f 2/2/17 8/11/18 4/4/19
f 4/4/19 8/11/18 6/12/20
s 6
f 7/13/21 1/1/22 5/14/23
f 5/14/23 1/1/22 3/3/24
s 1
f 9/15/1 2/2/25 10/17/2
f 10/17/2 2/2/25 4/4/26
s 2
f 11/18/8 10/17/6 6/6/27
f 6/6/27 10/17/6 4/4/28
s 3
f 12/19/12 11/18/10 8/8/29
f 8/8/29 11/18/10 6/6/30
s 7
f 26/32/31 25/33/32 28/35/33
f 28/35/33 25/33/32 27/34/34
s 8
f 12/19/35 14/21/36 7/7/37
f 7/7/37 14/21/36 13/20/38
f 12/19/35 9/16/39 14/21/36
f 14/21/36 9/16/39 15/22/40
f 9/16/39 1/9/41 15/22/40
f 15/22/40 1/9/41 16/23/42
f 1/9/41 7/7/37 16/23/42
f 16/23/42 7/7/37 13/20/38
f 9/16/39 12/19/35 18/24/43
f 18/24/43 12/19/35 17/25/44
f 12/19/35 8/8/45 17/25/44
f 17/25/44 8/8/45 19/26/46
f 8/8/45 2/10/47 19/26/46
f 19/26/46 2/10/47 20/27/48
f 9/16/39 18/24/43 2/10/47
f 2/10/47 18/24/43 20/27/48
s 9
f 13/20/49 14/21/50 21/28/51
f 21/28/51 14/21/50 22/29/52
s 10
f 14/21/53 15/22/54 22/29/55
f 22/29/55 15/22/54 23/30/56
s 11
f 15/22/57 16/23/58 23/30/59
f 23/30/59 16/23/58 24/31/60
s 12
f 16/23/61 13/20/62 24/31/63
f 24/31/63 13/20/62 21/28/64
s 13
f 18/24/65 17/25/66 26/32/67
f 26/32/67 17/25/66 25/33/68
s 14
f 17/25/69 19/26/70 25/33/71
f 25/33/71 19/26/70 27/34/72
s 15
f 19/26/73 20/27/74 27/34/75
f 27/34/75 20/27/74 28/35/76
s 16
f 20/27/77 18/24/78 28/35/79
f 28/35/79 18/24/78 26/32/80
s 17
f 29/36/81 30/37/82 31/39/83
f 31/39/83 30/37/82 32/38/84
s 18
f 31/39/85 32/38/86 33/41/87
f 33/41/87 32/38/86 34/40/88
s 19
f 33/41/89 34/40/90 35/43/91
f 35/43/91 34/40/90 36/42/92
s 20
f 35/43/93 36/42/94 29/45/95
f 29/45/95 36/42/94 30/44/96
s 21
f 30/37/97 36/46/98 32/38/99
f 32/38/99 36/46/98 34/47/100
s 22
f 35/48/101 29/36/102 33/49/103
f 33/49/103 29/36/102 31/39/104
s 23
f 37/50/105 38/51/106 39/53/107
f 39/53/107 38/51/106 40/52/108
s 24
f 39/53/109 40/52/110 41/55/111
f 41/55/111 40/52/110 42/54/112
s 25
f 41/55/113 42/54/114 43/57/115
f 43/57/115 42/54/114 44/56/116
s 26
f 43/57/117 44/56/118 37/59/119
f 37/59/119 44/56/118 38/58/120
s 27
f 38/51/121 44/60/122 40/52/123
f 40/52/123 44/60/122 42/61/124
s 28
f 43/62/125 37/50/126 41/63/127
f 41/63/127 37/50/126 39/53/128
s 29
f 45/64/129 46/65/130 47/67/131
f 47/67/131 46/65/130 48/66/132
s 30
f 47/67/133 48/66/134 49/69/135
f 49/69/135 48/66/134 50/68/136
s 31
f 49/69/137 50/68/138 51/71/139
f 51/71/139 50/68/138 52/70/140
s 32
f 51/71/141 52/70/142 45/73/143
f 45/73/143 52/70/142 46/72/144
s 33
f 46/65/145 52/74/146 48/66/147
f 48/66/147 52/74/146 50/75/148
s 34
f 51/76/149 45/64/150 49/77/151
f 49/77/151 45/64/150 47/67/152
s 35
f 53/78/153 54/79/154 55/81/155
f 55/81/155 54/79/154 56/80/156
s 36
f 55/81/157 56/80/158 57/83/159
f 57/83/159 56/80/158 58/82/160
s 37
f 57/83/161 58/82/162 59/85/163
f 59/85/163 58/82/162 60/84/164
s 38
f 59/85/165 60/84/166 53/87/167
f 53/87/167 60/84/166 54/86/168
s 39
f 54/79/169 60/88/170 56/80/171
f 56/80/171 60/88/170 58/89/172
s 40
f 59/90/173 53/78/174 57/91/175
f 57/91/175 53/78/174 55/81/176
